<svg width="365" height="108" xmlns="http://www.w3.org/2000/svg" xml:space="preserve" version="1.1">

 <g>
  <title>Layer 1</title>
  <g id="XMLID_1_">
   <path fill="#A6A6A6" d="m352,108.20001l-339.2,0c-7,0 -12.8,-5.8 -12.8,-12.8l0,-82.6c0,-7 5.7,-12.8 12.8,-12.8l339.2,0c7,0 13,5.7 13,12.8l0,82.6c0,7 -5.9,12.8 -13,12.8z" class="st0" id="XMLID_3_"/>
   <path d="m362.4,95.40001c0,5.7 -4.6,10.4 -10.4,10.4l-339.2,0c-5.7,0 -10.4,-4.6 -10.4,-10.4l0,-82.6c0,-5.7 4.7,-10.4 10.4,-10.4l339.2,0c5.7,0 10.4,4.7 10.4,10.4l0,82.6z" id="XMLID_4_"/>
   <path fill="#FFFFFF" d="m81.5,53.50001c-0.1,-8.7 7.1,-13 7.5,-13.2c-4.1,-6 -10.4,-6.8 -12.6,-6.8c-5.3,-0.6 -10.5,3.2 -13.2,3.2c-2.8,0 -6.9,-3.1 -11.4,-3c-5.8,0.1 -11.2,3.4 -14.2,8.6c-6.1,10.6 -1.6,26.2 4.3,34.8c2.9,4.2 6.4,8.9 10.9,8.7c4.4,-0.2 6,-2.8 11.3,-2.8c5.3,0 6.8,2.8 11.4,2.7c4.7,-0.1 7.7,-4.2 10.5,-8.5c3.4,-4.8 4.8,-9.6 4.8,-9.8c-0.2,0 -9.3,-3.4 -9.3,-13.9z" class="st1" id="XMLID_5_"/>
   <path fill="#FFFFFF" d="m72.8,27.90001c2.4,-3 4,-7 3.5,-11.1c-3.4,0.2 -7.7,2.4 -10.2,5.3c-2.2,2.5 -4.1,6.7 -3.6,10.6c3.9,0.3 7.8,-1.9 10.3,-4.8z" class="st1" id="XMLID_6_"/>
   <path fill="#FFFFFF" d="m145,85.20001l-6.1,0l-3.4,-10.6l-11.7,0l-3.2,10.6l-6,0l11.6,-36l7.2,0l11.6,36zm-10.5,-15l-3,-9.4c-0.3,-1 -0.9,-3.2 -1.8,-6.8l-0.1,0c-0.4,1.5 -0.9,3.8 -1.7,6.8l-3,9.4l9.6,0z" class="st1" id="XMLID_9_"/>
   <path fill="#FFFFFF" d="m174.8,71.90001c0,4.4 -1.2,7.9 -3.6,10.5c-2.1,2.3 -4.8,3.4 -8,3.4c-3.4,0 -5.9,-1.2 -7.4,-3.7l-0.1,0l0,13.7l-5.8,0l0,-28c0,-2.8 -0.1,-5.6 -0.2,-8.5l5.1,0l0.3,4.1l0.1,0c1.9,-3.1 4.8,-4.6 8.8,-4.6c3.1,0 5.6,1.2 7.7,3.6c2.1,2.4 3.1,5.6 3.1,9.5zm-5.8,0.2c0,-2.5 -0.6,-4.6 -1.7,-6.2c-1.2,-1.7 -2.9,-2.6 -5,-2.6c-1.4,0 -2.7,0.5 -3.9,1.4c-1.2,0.9 -1.9,2.2 -2.3,3.7c-0.2,0.7 -0.3,1.3 -0.3,1.8l0,4.3c0,1.9 0.6,3.5 1.7,4.8c1.2,1.3 2.7,1.9 4.5,1.9c2.2,0 3.9,-0.8 5.1,-2.5c1.2,-1.6 1.9,-3.8 1.9,-6.6z" class="st1" id="XMLID_12_"/>
   <path fill="#FFFFFF" d="m204.7,71.90001c0,4.4 -1.2,7.9 -3.6,10.5c-2.1,2.3 -4.8,3.4 -8,3.4c-3.4,0 -5.9,-1.2 -7.4,-3.7l-0.1,0l0,13.7l-5.8,0l0,-28c0,-2.8 -0.1,-5.6 -0.2,-8.5l5.1,0l0.3,4.1l0.1,0c1.9,-3.1 4.8,-4.6 8.8,-4.6c3.1,0 5.6,1.2 7.7,3.6c2,2.4 3.1,5.6 3.1,9.5zm-5.9,0.2c0,-2.5 -0.6,-4.6 -1.7,-6.2c-1.2,-1.7 -2.9,-2.6 -5,-2.6c-1.4,0 -2.7,0.5 -3.9,1.4c-1.2,0.9 -1.9,2.2 -2.3,3.7c-0.2,0.7 -0.3,1.3 -0.3,1.8l0,4.3c0,1.9 0.6,3.5 1.7,4.8c1.2,1.3 2.7,1.9 4.5,1.9c2.2,0 3.9,-0.8 5.1,-2.5c1.3,-1.6 1.9,-3.8 1.9,-6.6z" class="st1" id="XMLID_15_"/>
   <path fill="#FFFFFF" d="m238,75.10001c0,3.1 -1.1,5.6 -3.2,7.5c-2.3,2.1 -5.6,3.1 -9.8,3.1c-3.9,0 -7,-0.7 -9.3,-2.2l1.3,-4.8c2.5,1.5 5.3,2.3 8.3,2.3c2.2,0 3.9,-0.5 5.1,-1.5c1.2,-1 1.8,-2.3 1.8,-3.9c0,-1.5 -0.5,-2.7 -1.5,-3.7c-1,-1 -2.6,-1.9 -5,-2.8c-6.3,-2.3 -9.4,-5.8 -9.4,-10.3c0,-3 1.1,-5.4 3.3,-7.3c2.2,-1.9 5.1,-2.8 8.8,-2.8c3.3,0 6,0.6 8.2,1.7l-1.4,4.7c-2,-1.1 -4.3,-1.7 -6.9,-1.7c-2,0 -3.6,0.5 -4.7,1.5c-1,0.9 -1.4,2 -1.4,3.3c0,1.4 0.5,2.6 1.7,3.5c1,0.9 2.7,1.8 5.2,2.8c3.1,1.2 5.4,2.7 6.8,4.4c1.4,1.6 2.1,3.7 2.1,6.2z" class="st1" id="XMLID_16_"/>
   <path fill="#FFFFFF" d="m257.1,63.60001l-6.4,0l0,12.6c0,3.2 1.1,4.8 3.4,4.8c1,0 1.9,-0.1 2.6,-0.3l0.2,4.4c-1.1,0.4 -2.6,0.6 -4.5,0.6c-2.3,0 -4.1,-0.7 -5.3,-2.1c-1.3,-1.4 -1.9,-3.7 -1.9,-7l0,-13.1l-3.8,0l0,-4.3l3.8,0l0,-4.8l5.7,-1.7l0,6.5l6.4,0l0,4.4l-0.2,0z" class="st1" id="XMLID_17_"/>
   <path fill="#FFFFFF" d="m285.8,72.00001c0,4 -1.1,7.3 -3.4,9.8c-2.4,2.6 -5.6,4 -9.5,4c-3.8,0 -6.8,-1.3 -9.1,-3.8c-2.3,-2.5 -3.4,-5.7 -3.4,-9.6c0,-4 1.2,-7.3 3.5,-9.9c2.3,-2.6 5.5,-3.8 9.4,-3.8c3.8,0 6.9,1.3 9.2,3.8c2.2,2.5 3.3,5.6 3.3,9.5zm-6,0.2c0,-2.4 -0.5,-4.4 -1.5,-6.2c-1.2,-2.1 -2.9,-3.1 -5.2,-3.1c-2.3,0 -4.1,1 -5.3,3.1c-1,1.7 -1.5,3.8 -1.5,6.3c0,2.4 0.5,4.4 1.5,6.2c1.2,2.1 3,3.1 5.2,3.1c2.2,0 3.9,-1.1 5.2,-3.2c1,-1.7 1.6,-3.8 1.6,-6.2z" class="st1" id="XMLID_20_"/>
   <path fill="#FFFFFF" d="m304.5,64.30001c-0.6,-0.1 -1.2,-0.2 -1.8,-0.2c-2,0 -3.6,0.8 -4.7,2.3c-1,1.4 -1.4,3.1 -1.4,5.1l0,13.6l-5.8,0l0.1,-17.8c0,-3 -0.1,-5.7 -0.2,-8.2l5,0l0.2,5l0.2,0c0.6,-1.7 1.6,-3.1 2.9,-4.1c1.3,-0.9 2.7,-1.4 4.2,-1.4c0.5,0 1,0 1.4,0.1l0,5.6l-0.1,0z" class="st1" id="XMLID_21_"/>
   <path fill="#FFFFFF" d="m330.3,71.00001c0,1 -0.1,1.9 -0.2,2.6l-17.3,0c0.1,2.6 0.9,4.5 2.5,5.9c1.5,1.2 3.3,1.8 5.7,1.8c2.6,0 4.9,-0.4 7,-1.2l0.9,4c-2.5,1.1 -5.4,1.6 -8.7,1.6c-4,0 -7.2,-1.2 -9.5,-3.5c-2.3,-2.4 -3.4,-5.5 -3.4,-9.5c0,-3.9 1.1,-7.2 3.2,-9.8c2.2,-2.8 5.3,-4.2 9.1,-4.2c3.7,0 6.6,1.4 8.5,4.2c1.4,2.1 2.2,4.9 2.2,8.1zm-5.5,-1.5c0,-1.7 -0.3,-3.2 -1.1,-4.4c-1,-1.6 -2.5,-2.4 -4.6,-2.4c-1.9,0 -3.4,0.8 -4.6,2.3c-1,1.2 -1.5,2.7 -1.7,4.5l12,0l0,0z" class="st1" id="XMLID_24_"/>
   <path fill="#FFFFFF" d="m132.6,27.10001c0,3.2 -1,5.6 -2.9,7.2c-1.8,1.5 -4.3,2.2 -7.5,2.2c-1.6,0 -3,-0.1 -4.1,-0.2l0,-17.4c1.5,-0.2 3.1,-0.4 4.9,-0.4c3.1,0 5.4,0.7 7,2c1.7,1.6 2.6,3.8 2.6,6.6zm-3,0.1c0,-2.1 -0.5,-3.6 -1.6,-4.7c-1.1,-1.1 -2.7,-1.7 -4.8,-1.7c-0.9,0 -1.7,0.1 -2.3,0.2l0,13.2c0.3,0.1 1,0.1 1.9,0.1c2.2,0 3.8,-0.6 5,-1.8c1.2,-1.3 1.8,-3 1.8,-5.3z" class="st1" id="XMLID_27_"/>
   <path fill="#FFFFFF" d="m148.5,29.90001c0,2 -0.6,3.6 -1.7,4.8c-1.2,1.3 -2.7,1.9 -4.7,1.9c-1.9,0 -3.4,-0.6 -4.5,-1.9c-1.1,-1.2 -1.7,-2.8 -1.7,-4.7c0,-2 0.6,-3.6 1.7,-4.9c1.1,-1.3 2.7,-1.9 4.6,-1.9c1.9,0 3.4,0.6 4.5,1.9c1.2,1.3 1.8,2.9 1.8,4.8zm-3,0.1c0,-1.2 -0.3,-2.2 -0.8,-3c-0.6,-1 -1.4,-1.5 -2.5,-1.5c-1.1,0 -2,0.5 -2.6,1.5c-0.5,0.8 -0.8,1.9 -0.8,3.1c0,1.2 0.3,2.2 0.8,3c0.6,1 1.5,1.5 2.6,1.5c1.1,0 1.9,-0.5 2.5,-1.6c0.6,-0.8 0.8,-1.9 0.8,-3z" class="st1" id="XMLID_30_"/>
   <path fill="#FFFFFF" d="m169.7,23.60001l-4,12.7l-2.6,0l-1.7,-5.5c-0.4,-1.4 -0.8,-2.8 -1,-4.1l-0.1,0c-0.2,1.4 -0.6,2.8 -1,4.1l-1.8,5.5l-2.6,0l-3.8,-12.7l2.9,0l1.4,6.1c0.3,1.4 0.6,2.8 0.9,4.1l0.1,0c0.2,-1.1 0.6,-2.4 1.1,-4.1l1.8,-6.1l2.3,0l1.7,6c0.4,1.5 0.8,2.8 1,4.2l0.1,0c0.2,-1.3 0.5,-2.7 0.9,-4.2l1.5,-6l2.9,0l0,0z" class="st1" id="XMLID_31_"/>
   <path fill="#FFFFFF" d="m184.4,36.30001l-2.8,0l0,-7.3c0,-2.2 -0.9,-3.4 -2.6,-3.4c-0.8,0 -1.5,0.3 -2,0.9c-0.5,0.6 -0.8,1.3 -0.8,2.2l0,7.6l-2.8,0l0,-9.1c0,-1.1 0,-2.3 -0.1,-3.6l2.5,0l0.1,2l0.1,0c0.3,-0.6 0.8,-1.1 1.5,-1.5c0.8,-0.5 1.6,-0.7 2.6,-0.7c1.2,0 2.2,0.4 3,1.2c1,0.9 1.5,2.4 1.5,4.2l0,7.5l-0.2,0z" class="st1" id="XMLID_32_"/>
   <rect fill="#FFFFFF" height="18.6" width="2.8" class="st1" y="17.80001" x="189.4" id="XMLID_33_"/>
   <path fill="#FFFFFF" d="m208.9,29.90001c0,2 -0.6,3.6 -1.7,4.8c-1.2,1.3 -2.7,1.9 -4.7,1.9c-1.9,0 -3.4,-0.6 -4.5,-1.9c-1.1,-1.2 -1.7,-2.8 -1.7,-4.7c0,-2 0.6,-3.6 1.7,-4.9c1.1,-1.3 2.7,-1.9 4.6,-1.9c1.9,0 3.4,0.6 4.5,1.9c1.2,1.3 1.8,2.9 1.8,4.8zm-3,0.1c0,-1.2 -0.3,-2.2 -0.8,-3c-0.6,-1 -1.4,-1.5 -2.5,-1.5c-1.1,0 -2,0.5 -2.6,1.5c-0.5,0.8 -0.8,1.9 -0.8,3.1c0,1.2 0.3,2.2 0.8,3c0.6,1 1.5,1.5 2.6,1.5c1.1,0 1.9,-0.5 2.5,-1.6c0.6,-0.8 0.8,-1.9 0.8,-3z" class="st1" id="XMLID_36_"/>
   <path fill="#FFFFFF" d="m222.6,36.30001l-2.5,0l-0.2,-1.5l-0.1,0c-0.9,1.2 -2.1,1.8 -3.7,1.8c-1.2,0 -2.2,-0.4 -2.9,-1.2c-0.7,-0.7 -1,-1.6 -1,-2.6c0,-1.6 0.6,-2.7 2,-3.6c1.3,-0.8 3.1,-1.2 5.5,-1.2l0,-0.2c0,-1.7 -0.9,-2.5 -2.6,-2.5c-1.3,0 -2.4,0.3 -3.3,0.9l-0.6,-1.9c1.2,-0.7 2.6,-1.1 4.4,-1.1c3.3,0 5,1.8 5,5.3l0,4.7c-0.2,1.4 -0.1,2.4 0,3.1zm-2.9,-4.3l0,-2c-3.1,-0.1 -4.7,0.8 -4.7,2.6c0,0.7 0.2,1.2 0.5,1.5c0.4,0.3 0.8,0.5 1.4,0.5c0.6,0 1.2,-0.2 1.7,-0.6c0.5,-0.4 0.9,-0.9 1,-1.5l0.1,-0.5z" class="st1" id="XMLID_39_"/>
   <path fill="#FFFFFF" d="m238.7,36.30001l-2.5,0l-0.1,-2l-0.1,0c-0.8,1.6 -2.2,2.3 -4.1,2.3c-1.5,0 -2.8,-0.6 -3.8,-1.8c-1,-1.2 -1.5,-2.8 -1.5,-4.7c0,-2.1 0.5,-3.7 1.7,-5c1.1,-1.2 2.4,-1.8 3.9,-1.8c1.7,0 2.9,0.6 3.6,1.7l0.1,0l0,-7.3l2.8,0l0,15.2c-0.1,1.3 -0.1,2.4 0,3.4zm-2.9,-5.3l0,-2.1c0,-0.4 0,-0.7 -0.1,-0.9c-0.2,-0.7 -0.5,-1.3 -1,-1.7c-0.5,-0.5 -1.2,-0.7 -1.9,-0.7c-1.1,0 -1.9,0.4 -2.5,1.3c-0.6,0.8 -0.9,1.9 -0.9,3.2c0,1.3 0.3,2.3 0.9,3.1c0.6,0.8 1.4,1.3 2.5,1.3c0.9,0 1.7,-0.3 2.2,-1c0.5,-0.8 0.8,-1.6 0.8,-2.5z" class="st1" id="XMLID_42_"/>
   <path fill="#FFFFFF" d="m262.9,29.90001c0,2 -0.6,3.6 -1.7,4.8c-1.2,1.3 -2.7,1.9 -4.7,1.9c-1.9,0 -3.4,-0.6 -4.5,-1.9c-1.1,-1.2 -1.7,-2.8 -1.7,-4.7c0,-2 0.6,-3.6 1.7,-4.9c1.1,-1.3 2.7,-1.9 4.6,-1.9c1.9,0 3.4,0.6 4.5,1.9c1.3,1.3 1.8,2.9 1.8,4.8zm-2.9,0.1c0,-1.2 -0.3,-2.2 -0.8,-3c-0.6,-1 -1.4,-1.5 -2.5,-1.5c-1.1,0 -2,0.5 -2.6,1.5c-0.5,0.8 -0.8,1.9 -0.8,3.1c0,1.2 0.3,2.2 0.8,3c0.6,1 1.5,1.5 2.6,1.5c1.1,0 1.9,-0.5 2.5,-1.6c0.5,-0.8 0.8,-1.9 0.8,-3z" class="st1" id="XMLID_45_"/>
   <path fill="#FFFFFF" d="m278.2,36.30001l-2.8,0l0,-7.3c0,-2.2 -0.9,-3.4 -2.6,-3.4c-0.8,0 -1.5,0.3 -2,0.9c-0.5,0.6 -0.8,1.3 -0.8,2.2l0,7.6l-2.8,0l0,-9.1c0,-1.1 0,-2.3 -0.1,-3.6l2.5,0l0.1,2l0.1,0c0.3,-0.6 0.8,-1.1 1.5,-1.5c0.8,-0.5 1.6,-0.7 2.6,-0.7c1.2,0 2.2,0.4 3,1.2c1,0.9 1.5,2.4 1.5,4.2l0,7.5l-0.2,0z" class="st1" id="XMLID_46_"/>
   <path fill="#FFFFFF" d="m297.2,25.70001l-3.1,0l0,6.2c0,1.6 0.6,2.4 1.7,2.4c0.5,0 0.9,0 1.3,-0.1l0.1,2.1c-0.6,0.2 -1.3,0.3 -2.2,0.3c-1.1,0 -2,-0.3 -2.6,-1c-0.6,-0.7 -0.9,-1.8 -0.9,-3.4l0,-6.4l-2,0l0,-2.1l1.9,0l0,-2.3l2.8,-0.8l0,3.2l3.1,0l-0.1,1.9l0,0z" class="st1" id="XMLID_47_"/>
   <path fill="#FFFFFF" d="m312.2,36.30001l-2.8,0l0,-7.2c0,-2.3 -0.9,-3.4 -2.6,-3.4c-1.3,0 -2.2,0.7 -2.7,2c-0.1,0.3 -0.1,0.6 -0.1,1l0,7.7l-2.8,0l0,-18.6l2.8,0l0,7.7l0.1,0c0.9,-1.4 2.2,-2.1 3.8,-2.1c1.2,0 2.1,0.4 2.9,1.2c1,1 1.4,2.4 1.4,4.3l0,7.4z" class="st1" id="XMLID_48_"/>
   <path fill="#FFFFFF" d="m327.7,29.40001c0,0.5 0,0.9 -0.1,1.3l-8.5,0c0,1.3 0.4,2.2 1.2,2.9c0.7,0.6 1.6,0.9 2.8,0.9c1.3,0 2.4,-0.2 3.4,-0.6l0.4,2c-1.2,0.5 -2.6,0.8 -4.3,0.8c-2,0 -3.5,-0.6 -4.7,-1.7c-1.1,-1.2 -1.7,-2.7 -1.7,-4.7c0,-1.9 0.5,-3.5 1.6,-4.8c1.1,-1.4 2.6,-2 4.5,-2c1.8,0 3.2,0.7 4.2,2c0.8,0.9 1.2,2.3 1.2,3.9zm-2.7,-0.8c0,-0.8 -0.2,-1.6 -0.5,-2.2c-0.5,-0.8 -1.2,-1.2 -2.3,-1.2c-0.9,0 -1.7,0.4 -2.3,1.2c-0.5,0.6 -0.7,1.3 -0.8,2.2l5.9,0z" class="st1" id="XMLID_51_"/>
  </g>
 </g>
</svg>