<svg width="365" height="108" xmlns="http://www.w3.org/2000/svg" version="1.1" xml:space="preserve">
 <defs>
  <linearGradient id="XMLID_2_" x1="0.91302" y1="0.04469" x2="-0.3834" y2="0.72193">
   <stop offset="0" stop-color="#00A0FF"/>
   <stop offset="0.00657" stop-color="#00A1FF"/>
   <stop offset="0.2601" stop-color="#00BEFF"/>
   <stop offset="0.5122" stop-color="#00D2FF"/>
   <stop offset="0.7604" stop-color="#00DFFF"/>
   <stop offset="1" stop-color="#00E3FF"/>
  </linearGradient>
  <linearGradient id="XMLID_3_" x1="1.07545" y1="0.49997" x2="-1.30351" y2="0.49997">
   <stop offset="0" stop-color="#FFE000"/>
   <stop offset="0.4087" stop-color="#FFBD00"/>
   <stop offset="0.7754" stop-color="#FFA500"/>
   <stop offset="1" stop-color="#FF9C00"/>
  </linearGradient>
  <linearGradient id="XMLID_4_" x1="0.86326" y1="0.1787" x2="-0.50108" y2="1.94685">
   <stop offset="0" stop-color="#FF3A44"/>
   <stop offset="1" stop-color="#C31162"/>
  </linearGradient>
  <linearGradient id="XMLID_5_" x1="-0.19282" y1="-0.54052" x2="0.41913" y2="0.24904">
   <stop offset="0" stop-color="#32A071"/>
   <stop offset="0.0685" stop-color="#2DA771"/>
   <stop offset="0.4762" stop-color="#15CF74"/>
   <stop offset="0.8009" stop-color="#06E775"/>
   <stop offset="1" stop-color="#00F076"/>
  </linearGradient>
  <linearGradient id="XMLID_6_" x1="0.86077" y1="-0.20794" x2="-0.50055" y2="2.39933">
   <stop offset="0" stop-color="#CC2E36"/>
   <stop offset="1" stop-color="#9C0E4E"/>
  </linearGradient>
  <linearGradient id="XMLID_7_" x1="31.57112" y1="-10.6202" x2="1.32119" y2="0.18332">
   <stop offset="0" stop-color="#008DE0"/>
   <stop offset="0.00657" stop-color="#008DE0"/>
   <stop offset="0.2601" stop-color="#00A7E0"/>
   <stop offset="0.5122" stop-color="#00B8E0"/>
   <stop offset="0.7604" stop-color="#00C4E0"/>
   <stop offset="1" stop-color="#00C7E0"/>
  </linearGradient>
  <linearGradient id="XMLID_8_" x1="166.04402" y1="-165.02533" x2="-141.63365" y2="142.60539">
   <stop offset="0" stop-color="#E0333C"/>
   <stop offset="1" stop-color="#AB0F56"/>
  </linearGradient>
  <linearGradient id="XMLID_9_" x1="1.12727" y1="0.49976" x2="-2.88631" y2="0.49976">
   <stop offset="0" stop-color="#E0C500"/>
   <stop offset="0.4087" stop-color="#E0A600"/>
   <stop offset="0.7754" stop-color="#E09100"/>
   <stop offset="1" stop-color="#E08900"/>
  </linearGradient>
  <linearGradient id="XMLID_10_" x1="-1964.5742" y1="-144.19649" x2="-1964.5747" y2="-144.19599">
   <stop offset="0" stop-color="#E0333C"/>
   <stop offset="1" stop-color="#AB0F56"/>
  </linearGradient>
  <linearGradient id="XMLID_11_" x1="11.23566" y1="-2.91677" x2="-21.17513" y2="7.39572">
   <stop offset="0" stop-color="#40B8FF"/>
   <stop offset="0.00657" stop-color="#40B9FF"/>
   <stop offset="0.2601" stop-color="#40CEFF"/>
   <stop offset="0.5122" stop-color="#40DDFF"/>
   <stop offset="0.7604" stop-color="#40E7FF"/>
   <stop offset="1" stop-color="#40EAFF"/>
  </linearGradient>
  <linearGradient id="XMLID_12_" x1="1.13372" y1="0.5002" x2="-2.87987" y2="0.5002">
   <stop offset="0" stop-color="#FFE840"/>
   <stop offset="0.4087" stop-color="#FFCE40"/>
   <stop offset="0.7754" stop-color="#FFBC40"/>
   <stop offset="1" stop-color="#FFB540"/>
  </linearGradient>
  <linearGradient id="XMLID_13_" x1="-0.18753" y1="-0.79703" x2="0.4217" y2="0.36722">
   <stop offset="0" stop-color="#65B895"/>
   <stop offset="0.0685" stop-color="#62BD95"/>
   <stop offset="0.4762" stop-color="#50DB97"/>
   <stop offset="0.8009" stop-color="#44ED98"/>
   <stop offset="1" stop-color="#40F498"/>
  </linearGradient>
 </defs>
 <g>
  <title>Layer 1</title>
  <g id="XMLID_15_">
   <path id="XMLID_17_" d="m351.5,108.20001l-338,0c-7.4,0 -13.5,-6.1 -13.5,-13.5l0,-81.1c0,-7.4 6.1,-13.5 13.5,-13.5l338,0c7.4,0 13.5,6.1 13.5,13.5l0,81.1c0,7.4 -6.1,13.5 -13.5,13.5"/>
   <path id="XMLID_23_" class="st0" d="m351.5,2.20001c6.3,0 11.4,5.1 11.4,11.4l0,81.1c0,6.3 -5.1,11.4 -11.4,11.4l-338,0c-6.3,0 -11.4,-5.1 -11.4,-11.4l0,-81.1c0,-6.3 5.1,-11.4 11.4,-11.4l338,0m0,-2.2l-338,0c-7.4,0 -13.5,6.1 -13.5,13.5l0,81.1c0,7.4 6.1,13.5 13.5,13.5l338,0c7.4,0 13.5,-6.1 13.5,-13.5l0,-81.1c0,-7.4 -6.1,-13.5 -13.5,-13.5z" fill="#A6A6A6"/>
   <path id="XMLID_24_" class="st1" d="m128.2,27.70001c0,2.3 -0.7,4.1 -2,5.4c-1.5,1.6 -3.5,2.4 -6,2.4c-2.3,0 -4.3,-0.8 -6,-2.4c-1.6,-1.6 -2.5,-3.6 -2.5,-6s0.8,-4.4 2.5,-6c1.6,-1.6 3.6,-2.4 6,-2.4c1.2,0 2.3,0.2 3.3,0.7c1.1,0.5 1.9,1.1 2.5,1.8l-1.4,1.4c-1.1,-1.3 -2.6,-1.9 -4.4,-1.9c-1.7,0 -3.2,0.6 -4.4,1.8s-1.9,2.8 -1.9,4.7s0.6,3.5 1.9,4.7c1.2,1.2 2.7,1.8 4.4,1.8c1.8,0 3.3,-0.6 4.5,-1.8c0.8,-0.8 1.2,-1.9 1.4,-3.3l-5.9,0l0,-1.9l7.9,0c0.1,0.2 0.1,0.6 0.1,1z" fill="#FFFFFF"/>
   <path id="XMLID_25_" class="st1" d="m128.2,27.70001l0,0c-0.1,2.2 -0.8,4 -2.1,5.3l0,0l0,0c-1.5,1.6 -3.5,2.4 -5.9,2.4c-2.3,0 -4.3,-0.8 -5.9,-2.4c-1.6,-1.6 -2.4,-3.6 -2.4,-6c0,-2.4 0.8,-4.4 2.4,-6c1.6,-1.6 3.6,-2.4 5.9,-2.4c1.1,0 2.2,0.2 3.3,0.7c1,0.4 1.9,1 2.5,1.8l0.1,-0.1l-0.1,-0.1l-1.4,1.4l0.1,0.1l0.1,-0.1c-1.1,-1.3 -2.6,-2 -4.5,-2c-1.7,0 -3.2,0.6 -4.5,1.8s-1.9,2.8 -1.9,4.8c0,1.9 0.6,3.5 1.9,4.8c1.3,1.2 2.8,1.8 4.5,1.8c1.8,0 3.4,-0.6 4.6,-1.8c0.8,-0.8 1.3,-1.9 1.4,-3.3l0,-0.1l-5.9,0l0,-1.7l7.8,0l0,-0.1l-0.1,0c0,0.4 0,0.8 0.1,1.2l0,0l0.1,0c0,-0.4 0,-0.8 -0.1,-1.2l0,-0.1l-8,0l0,2.1l6,0l0,-0.1l-0.1,0c-0.1,1.4 -0.6,2.5 -1.3,3.2c-1.2,1.2 -2.7,1.8 -4.5,1.8c-1.7,0 -3.1,-0.6 -4.4,-1.8c-1.2,-1.2 -1.8,-2.7 -1.8,-4.6c0,-1.9 0.6,-3.4 1.8,-4.6c1.2,-1.2 2.7,-1.8 4.4,-1.8c1.9,0 3.3,0.6 4.4,1.9l0.1,0.1l1.6,-1.6l-0.1,-0.1c-0.6,-0.8 -1.5,-1.4 -2.6,-1.8c-1.1,-0.5 -2.2,-0.7 -3.4,-0.7c-2.4,0 -4.4,0.8 -6,2.5c-1.7,1.6 -2.5,3.7 -2.5,6.1s0.8,4.5 2.5,6.1c1.7,1.6 3.7,2.5 6,2.5c2.5,0 4.5,-0.8 6,-2.4l-0.1,-0.1l0.1,0.1c1.4,-1.4 2,-3.2 1.9,-5.5l0,0l0,0z" fill="#FFFFFF"/>
   <polygon id="XMLID_26_" class="st1" points="140.6999969482422,20.900009155273438 133.3000030517578,20.900009155273438 133.3000030517578,26.100006103515625 139.89999389648438,26.100006103515625 139.89999389648438,28 133.3000030517578,28 133.3000030517578,33.20001220703125 140.6999969482422,33.20001220703125 140.6999969482422,35.20001220703125 131.1999969482422,35.20001220703125 131.1999969482422,19 140.6999969482422,19 " fill="#FFFFFF"/>
   <polygon id="XMLID_27_" class="st1" points="140.6999969482422,20.900009155273438 140.6999969482422,20.800003051757812 133.1999969482422,20.800003051757812 133.1999969482422,26.20001220703125 139.8000030517578,26.20001220703125 139.8000030517578,27.900009155273438 133.1999969482422,27.900009155273438 133.1999969482422,33.300018310546875 140.60000610351562,33.300018310546875 140.60000610351562,35.100006103515625 131.3000030517578,35.100006103515625 131.3000030517578,19.100006103515625 140.60000610351562,19.100006103515625 140.60000610351562,20.900009155273438 140.6999969482422,20.900009155273438 140.6999969482422,20.800003051757812 140.6999969482422,20.900009155273438 140.8000030517578,20.900009155273438 140.8000030517578,18.900009155273438 131.10000610351562,18.900009155273438 131.10000610351562,35.300018310546875 140.8000030517578,35.300018310546875 140.8000030517578,33.100006103515625 133.39999389648438,33.100006103515625 133.39999389648438,28.100006103515625 140,28.100006103515625 140,26 133.39999389648438,26 133.39999389648438,21 140.8000030517578,21 140.8000030517578,20.900009155273438 " fill="#FFFFFF"/>
   <polygon id="XMLID_28_" class="st1" points="149.5,35.20001220703125 147.39999389648438,35.20001220703125 147.39999389648438,20.900009155273438 142.8000030517578,20.900009155273438 142.8000030517578,19 154,19 154,20.900009155273438 149.5,20.900009155273438 " fill="#FFFFFF"/>
   <polygon id="XMLID_29_" class="st1" points="149.5,35.20001220703125 149.5,35.100006103515625 147.5,35.100006103515625 147.5,20.800003051757812 142.89999389648438,20.800003051757812 142.89999389648438,19.100006103515625 153.89999389648438,19.100006103515625 153.89999389648438,20.800003051757812 149.39999389648438,20.800003051757812 149.39999389648438,35.20001220703125 149.5,35.20001220703125 149.5,35.100006103515625 149.5,35.20001220703125 149.60000610351562,35.20001220703125 149.60000610351562,21 154.10000610351562,21 154.10000610351562,18.900009155273438 142.6999969482422,18.900009155273438 142.6999969482422,21 147.3000030517578,21 147.3000030517578,35.300018310546875 149.60000610351562,35.300018310546875 149.60000610351562,35.20001220703125 " fill="#FFFFFF"/>
   <rect id="XMLID_30_" x="162.1" y="19.00001" class="st1" width="2.1" height="16.2" fill="#FFFFFF"/>
   <polygon id="XMLID_32_" class="st1" points="162.10000610351562,35.20001220703125 162.1999969482422,35.20001220703125 162.1999969482422,19.100006103515625 164,19.100006103515625 164,35.100006103515625 162.10000610351562,35.100006103515625 162.10000610351562,35.20001220703125 162.1999969482422,35.20001220703125 162.10000610351562,35.20001220703125 162.10000610351562,35.300018310546875 164.1999969482422,35.300018310546875 164.1999969482422,18.900009155273438 162,18.900009155273438 162,35.300018310546875 162.10000610351562,35.300018310546875 " fill="#FFFFFF"/>
   <polygon id="XMLID_33_" class="st1" points="173.39999389648438,35.20001220703125 171.3000030517578,35.20001220703125 171.3000030517578,20.900009155273438 166.8000030517578,20.900009155273438 166.8000030517578,19 177.89999389648438,19 177.89999389648438,20.900009155273438 173.39999389648438,20.900009155273438 " fill="#FFFFFF"/>
   <polygon id="XMLID_34_" class="st1" points="173.39999389648438,35.20001220703125 173.39999389648438,35.100006103515625 171.39999389648438,35.100006103515625 171.39999389648438,20.800003051757812 166.89999389648438,20.800003051757812 166.89999389648438,19.100006103515625 177.8000030517578,19.100006103515625 177.8000030517578,20.800003051757812 173.3000030517578,20.800003051757812 173.3000030517578,35.20001220703125 173.39999389648438,35.20001220703125 173.39999389648438,35.100006103515625 173.39999389648438,35.20001220703125 173.5,35.20001220703125 173.5,21 178,21 178,18.900009155273438 166.6999969482422,18.900009155273438 166.6999969482422,21 171.1999969482422,21 171.1999969482422,35.300018310546875 173.5,35.300018310546875 173.5,35.20001220703125 " fill="#FFFFFF"/>
   <path id="XMLID_40_" class="st1" d="m199,33.10001c-1.6,1.6 -3.6,2.5 -5.9,2.5c-2.4,0 -4.4,-0.8 -5.9,-2.5c-1.6,-1.6 -2.4,-3.6 -2.4,-6s0.8,-4.4 2.4,-6c1.6,-1.6 3.6,-2.5 5.9,-2.5c2.4,0 4.3,0.8 5.9,2.5c1.6,1.6 2.4,3.6 2.4,6c0,2.3 -0.8,4.3 -2.4,6zm-10.3,-1.4c1.2,1.2 2.7,1.8 4.4,1.8s3.2,-0.6 4.4,-1.8c1.2,-1.2 1.8,-2.8 1.8,-4.7s-0.6,-3.4 -1.8,-4.7c-1.2,-1.2 -2.7,-1.8 -4.4,-1.8s-3.2,0.6 -4.4,1.8c-1.2,1.2 -1.8,2.8 -1.8,4.7s0.6,3.5 1.8,4.7z" fill="#FFFFFF"/>
   <path id="XMLID_47_" class="st1" d="m199,33.10001l0,0c-1.6,1.6 -3.6,2.4 -5.9,2.4s-4.3,-0.8 -5.9,-2.4c-1.6,-1.6 -2.4,-3.6 -2.4,-5.9c0,-2.3 0.8,-4.3 2.4,-5.9c1.6,-1.6 3.5,-2.4 5.9,-2.4c2.3,0 4.3,0.8 5.9,2.4c1.6,1.6 2.4,3.6 2.4,5.9c-0.1,2.2 -0.9,4.2 -2.4,5.9l0,0l0,0c1.7,-1.6 2.5,-3.6 2.5,-6s-0.8,-4.4 -2.4,-6.1c-1.6,-1.7 -3.6,-2.5 -6,-2.5s-4.4,0.8 -6,2.5s-2.4,3.7 -2.4,6.1c0,2.4 0.8,4.4 2.4,6.1c1.6,1.7 3.6,2.5 6,2.5c2.4,-0.1 4.4,-0.9 5.9,-2.6l0,0zm-10.3,-1.4l0,0c1.1,1.3 2.6,1.9 4.4,1.9s3.3,-0.6 4.5,-1.9c1.2,-1.2 1.8,-2.8 1.8,-4.7s-0.6,-3.5 -1.8,-4.7c-1.2,-1.2 -2.7,-1.9 -4.5,-1.9s-3.3,0.6 -4.5,1.9c-1.2,1.2 -1.8,2.8 -1.8,4.7c0,2 0.6,3.6 1.9,4.7l0,0l0,0c-1.1,-1.3 -1.7,-2.8 -1.7,-4.7s0.6,-3.4 1.8,-4.6c1.2,-1.2 2.6,-1.8 4.3,-1.8c1.7,0 3.2,0.6 4.3,1.8c1.2,1.2 1.8,2.7 1.8,4.6c0,1.9 -0.6,3.4 -1.8,4.6c-1.2,1.2 -2.6,1.8 -4.3,1.8c-1.7,0 -3.2,-0.6 -4.4,-1.7l0,0z" fill="#FFFFFF"/>
   <polygon id="XMLID_48_" class="st1" points="204.29998779296875,35.20001220703125 204.29998779296875,19 206.89999389648438,19 214.80001831054688,31.600006103515625 214.80001831054688,31.600006103515625 214.80001831054688,28.400009155273438 214.80001831054688,19 216.80001831054688,19 216.80001831054688,35.20001220703125 214.70001220703125,35.20001220703125 206.39999389648438,21.900009155273438 206.29998779296875,21.900009155273438 206.39999389648438,25.100006103515625 206.39999389648438,35.20001220703125 " fill="#FFFFFF"/>
   <polygon id="XMLID_49_" class="st1" points="204.29998779296875,35.20001220703125 204.39999389648438,35.20001220703125 204.39999389648438,19.100006103515625 206.80001831054688,19.100006103515625 214.70001220703125,31.70001220703125 214.80001831054688,31.70001220703125 214.89999389648438,31.70001220703125 214.89999389648438,28.400009155273438 214.89999389648438,19.100006103515625 216.70001220703125,19.100006103515625 216.70001220703125,35.100006103515625 214.70001220703125,35.100006103515625 206.5,21.800003051757812 206.29998779296875,21.800003051757812 206.20001220703125,21.800003051757812 206.29998779296875,25.100006103515625 206.29998779296875,35.100006103515625 204.29998779296875,35.100006103515625 204.29998779296875,35.20001220703125 204.39999389648438,35.20001220703125 204.29998779296875,35.20001220703125 204.29998779296875,35.300018310546875 206.5,35.300018310546875 206.5,25.100006103515625 206.39999389648438,21.900009155273438 206.29998779296875,21.900009155273438 206.29998779296875,22 206.39999389648438,22 214.60000610351562,35.300018310546875 216.89999389648438,35.300018310546875 216.89999389648438,18.900009155273438 214.70001220703125,18.900009155273438 214.70001220703125,28.400009155273438 214.70001220703125,31.600006103515625 214.80001831054688,31.600006103515625 214.80001831054688,31.5 214.80001831054688,31.5 206.89999389648438,18.900009155273438 204.20001220703125,18.900009155273438 204.20001220703125,35.300018310546875 204.29998779296875,35.300018310546875 " fill="#FFFFFF"/>
   <path id="XMLID_131_" class="st1" d="m184.2,58.80001c-6.4,0 -11.5,4.8 -11.5,11.5c0,6.6 5.2,11.5 11.5,11.5c6.4,0 11.5,-4.9 11.5,-11.5c0.1,-6.6 -5.1,-11.5 -11.5,-11.5zm0,18.5c-3.5,0 -6.5,-2.9 -6.5,-7s3,-7 6.5,-7s6.5,2.8 6.5,7c0,4.1 -3,7 -6.5,7zm-25.2,-18.5c-6.4,0 -11.5,4.8 -11.5,11.5c0,6.6 5.2,11.5 11.5,11.5c6.4,0 11.5,-4.9 11.5,-11.5c0.1,-6.6 -5.1,-11.5 -11.5,-11.5zm0,18.5c-3.5,0 -6.5,-2.9 -6.5,-7s3,-7 6.5,-7s6.5,2.8 6.5,7c0,4.1 -3,7 -6.5,7zm-29.9,-14.9l0,4.9l11.7,0c-0.3,2.7 -1.3,4.7 -2.7,6.1c-1.7,1.7 -4.4,3.6 -9,3.6c-7.2,0 -12.8,-5.8 -12.8,-13c0,-7.2 5.6,-13 12.8,-13c3.9,0 6.7,1.5 8.8,3.5l3.4,-3.4c-2.9,-2.8 -6.8,-4.9 -12.2,-4.9c-9.8,0 -18.1,8 -18.1,17.9c0,9.8 8.3,17.9 18.1,17.9c5.3,0 9.3,-1.7 12.5,-5c3.2,-3.2 4.2,-7.8 4.2,-11.4c0,-1.1 -0.1,-2.2 -0.3,-3l-16.4,0l0,-0.2zm122.5,3.8c-1,-2.6 -3.9,-7.3 -9.8,-7.3s-10.8,4.7 -10.8,11.5c0,6.4 4.9,11.5 11.4,11.5c5.3,0 8.3,-3.2 9.6,-5.1l-3.9,-2.6c-1.3,1.9 -3.1,3.2 -5.7,3.2s-4.4,-1.2 -5.6,-3.5l15.4,-6.4l-0.6,-1.3zm-15.7,3.8c-0.1,-4.4 3.4,-6.7 6,-6.7c2,0 3.7,1 4.3,2.4l-10.3,4.3zm-12.5,11.1l5.1,0l0,-33.8l-5.1,0l0,33.8zm-8.3,-19.7l-0.2,0c-1.1,-1.4 -3.3,-2.6 -6.1,-2.6c-5.7,0 -11,5.1 -11,11.5s5.3,11.5 11,11.5c2.7,0 4.9,-1.2 6.1,-2.6l0.2,0l0,1.7c0,4.4 -2.4,6.8 -6.1,6.8c-3.1,0 -5,-2.2 -5.8,-4.1l-4.4,1.8c1.3,3 4.6,6.8 10.2,6.8c5.9,0 10.9,-3.5 10.9,-12l0,-20.6l-4.8,0l0,1.8l0,0zm-5.8,15.9c-3.5,0 -6.4,-2.9 -6.4,-6.9c0,-4.1 2.9,-7 6.4,-7c3.4,0 6.1,3 6.1,7c0.1,4 -2.6,6.9 -6.1,6.9zm66,-30l-12.1,0l0,33.8l5,0l0,-12.8l7,0c5.6,0 11.1,-4 11.1,-10.5c0,-6.4 -5.5,-10.5 -11,-10.5zm0.1,16.3l-7.2,0l0,-11.6l7.2,0c3.8,0 5.9,3.1 5.9,5.8c0,2.7 -2.1,5.8 -5.9,5.8zm31.2,-4.8c-3.7,0 -7.4,1.6 -9,5.2l4.5,1.9c1,-1.9 2.7,-2.5 4.6,-2.5c2.6,0 5.3,1.6 5.3,4.3l0,0.3c-0.9,-0.5 -2.9,-1.3 -5.3,-1.3c-4.8,0 -9.7,2.7 -9.7,7.6c0,4.5 4,7.4 8.4,7.4c3.4,0 5.3,-1.5 6.4,-3.3l0.2,0l0,2.6l4.9,0l0,-13c-0.1,-5.9 -4.6,-9.2 -10.3,-9.2zm-0.6,18.5c-1.7,0 -4,-0.8 -4,-2.9c0,-2.6 2.9,-3.6 5.3,-3.6c2.2,0 3.3,0.5 4.6,1.1c-0.3,3.2 -3,5.4 -5.9,5.4zm28.6,-17.8l-5.8,14.7l-0.2,0l-6,-14.7l-5.4,0l9,20.5l-5.1,11.4l5.3,0l13.9,-31.9l-5.7,0l0,0zm-45.5,21.6l5,0l0,-33.8l-5,0l0,33.8z" fill="#FFFFFF"/>
   <path id="XMLID_135_" class="st2" d="m27,23.70001l0,0l0,0m0,0l0,0l0,0m1.4,-3.1c-0.9,0.8 -1.4,2.2 -1.4,4l0,-0.4c0,-0.2 0,-0.3 0,-0.5c0,0.2 0,0.3 0,0.5l0,59.8l0,-0.4c0,1.7 0.5,3 1.3,3.8l0.2,0.2l33.5,-33.5l-33.6,-33.5" fill="url(#XMLID_2_)"/>
   <path id="XMLID_138_" class="st3" d="m89,55.70001c-0.4,0.9 -1.3,1.7 -2.4,2.3l-13.2,7.5l-0.3,0.1l0,0l0.3,-0.1l13.2,-7.5c1.1,-0.7 2,-1.5 2.4,-2.3m-15.9,-12.8l-11.2,11.2l11.2,11.2l13.5,-7.7c1.7,-1 2.7,-2.2 2.8,-3.5l0,0c-0.2,-1.3 -1.1,-2.5 -2.8,-3.5l-13.5,-7.7" fill="url(#XMLID_3_)"/>
   <path id="XMLID_142_" class="st4" d="m28.4,88.00001l0,0c0.6,0.6 1.5,0.9 2.4,0.9c0.2,0 0.3,0 0.5,0c-0.2,0 -0.3,0 -0.5,0c-0.9,0 -1.7,-0.3 -2.4,-0.9m-0.2,-0.2l0.2,0.2l-0.2,-0.2m33.7,-33.7l0,0l-33.5,33.5l0,0l-0.2,0.2l0.2,-0.2c0.6,0.6 1.5,0.9 2.4,0.9c0.9,0 1.9,-0.3 3,-0.9l39.2,-22.3l0.3,0.3l-0.3,-0.3l-11.1,-11.2" fill="url(#XMLID_4_)"/>
   <path id="XMLID_145_" class="st5" d="m30.8,19.70001c-0.9,0 -1.8,0.3 -2.4,0.9l33.5,33.5l11.2,-11.2l-39.2,-22.3c-1.2,-0.6 -2.2,-0.9 -3.1,-0.9m0,-0.4l0,0l0,0c0.9,0 1.9,0.3 3,0.9l39.5,22.4l0,0l-39.5,-22.4c-1.1,-0.6 -2.1,-0.9 -3,-0.9" fill="url(#XMLID_5_)"/>
   <path id="XMLID_159_" d="m28.4,88.00001l0,0l0,0l0,0m5.4,0c-0.9,0.5 -1.8,0.8 -2.6,0.9c0.9,-0.1 1.7,-0.4 2.6,-0.9m-5.6,-0.2l0,0l0,0l0,0"/>
   <path id="XMLID_160_" class="st6" d="m73.1,65.30001l-39.2,22.3c-1.1,0.6 -2.1,0.9 -3,0.9c-0.9,0 -1.8,-0.3 -2.4,-0.9l-0.2,0.2l0,0l0.2,0.2l0,0l0,0c0.6,0.6 1.5,0.9 2.4,0.9c0.2,0 0.3,0 0.5,0c0.8,-0.1 1.7,-0.4 2.6,-0.9l39.5,-22.4l-0.4,-0.3" fill="url(#XMLID_6_)"/>
   <path id="XMLID_161_" d="m27,84.00001l0,0c0,1.7 0.5,3 1.3,3.8l0,0l0,0l0,0c-0.9,-0.8 -1.3,-2.1 -1.3,-3.8"/>
   <path id="XMLID_162_" class="st7" d="m27,83.60001l0,0.4c0,1.7 0.5,3 1.3,3.8l0.2,-0.2l-0.2,-0.2c-0.9,-0.8 -1.3,-2.1 -1.3,-3.8" fill="url(#XMLID_7_)"/>
   <polyline id="XMLID_163_" class="st8" points="28.399993896484375,87.60000610351562 28.20001220703125,87.80001831054688 28.20001220703125,87.80001831054688 28.399993896484375,87.60000610351562 28.399993896484375,87.60000610351562 " fill="url(#XMLID_8_)"/>
   <path id="XMLID_164_" d="m89.4,54.10001l0,0c0,0.5 -0.1,1.1 -0.4,1.6c0.3,-0.5 0.4,-1.1 0.4,-1.6"/>
   <path id="XMLID_165_" class="st9" d="m89.4,54.10001c-0.2,1.3 -1.1,2.5 -2.8,3.5l-13.5,7.7l0.3,0.3l13.2,-7.5c1.2,-0.7 2,-1.5 2.4,-2.3c0.3,-0.6 0.4,-1.2 0.4,-1.7" fill="url(#XMLID_9_)"/>
   <polyline id="XMLID_166_" class="st10" points="73.10000610351562,65.30001831054688 73.10000610351562,65.30001831054688 73.30000305175781,65.5 73.10000610351562,65.30001831054688 " fill="url(#XMLID_10_)"/>
   <path id="XMLID_171_" class="st11" d="m73.3,42.70001l0,0l0,0l13.2,7.5c1.9,1.1 2.8,2.5 2.8,3.9l0,0c0,-1.4 -0.9,-2.8 -2.8,-3.9l-13.2,-7.5m-46.3,-19l0,0l0,0m0,0l0,0l0,0m3.8,-4.4c-2.1,0 -3.6,1.6 -3.8,4.4c0.1,-1.4 0.5,-2.5 1.2,-3.3l0.2,-0.2l0,0c0.6,-0.6 1.5,-0.9 2.4,-0.9" fill="#404040"/>
   <path id="XMLID_174_" class="st12" d="m28.2,20.40001l0,0c-0.7,0.7 -1.1,1.9 -1.2,3.3l0,0l0,0l0,0l0,0c0,0.2 0,0.3 0,0.5l0,0.4c0,-1.8 0.5,-3.2 1.4,-4l-0.2,-0.2m0.2,-0.2l0,0l0,0l0,0" fill="url(#XMLID_11_)"/>
   <path id="XMLID_175_" class="st13" d="m73.3,42.70001l-0.3,0.3l13.5,7.7c1.7,1 2.7,2.2 2.8,3.5c0,-1.4 -0.9,-2.8 -2.8,-3.9l-13.2,-7.6l0,0" fill="url(#XMLID_12_)"/>
   <path id="XMLID_176_" class="st14" d="m30.8,19.30001l0,0c-0.9,0 -1.8,0.3 -2.4,0.9l0,0l-0.2,0.2l0.2,0.2c0.6,-0.6 1.5,-0.9 2.4,-0.9c0.9,0 1.9,0.3 3,0.9l39.2,22.3l0.3,-0.3l0,0l-39.5,-22.4c-1.1,-0.6 -2.1,-0.9 -3,-0.9" fill="url(#XMLID_13_)"/>
  </g>
 </g>
</svg>